<?xml version="1.0" encoding="utf-8"?>
<!-- Generator: Adobe Illustrator 14.0.0, SVG Export Plug-In . SVG Version: 6.00 Build 43363)  -->
<!DOCTYPE svg PUBLIC "-//W3C//DTD SVG 1.1//EN" "http://www.w3.org/Graphics/SVG/1.1/DTD/svg11.dtd">
<svg version="1.1" id="Ebene_1" xmlns="http://www.w3.org/2000/svg" xmlns:xlink="http://www.w3.org/1999/xlink" x="0px" y="0px"
	 width="34.65px" height="35.49px" viewBox="0 0 34.65 35.49" enable-background="new 0 0 34.65 35.49" xml:space="preserve">
<g>
	<defs>
		<rect id="SVGID_1_" y="0" width="34.65" height="35.49"/>
	</defs>
	<clipPath id="SVGID_2_">
		<use xlink:href="#SVGID_1_"  overflow="visible"/>
	</clipPath>
	<path clip-path="url(#SVGID_2_)" fill-rule="evenodd" clip-rule="evenodd" fill="#61C2D0" d="M34.64,11.505
		c0.15-2.481-1.313-4.776-3.625-5.686L17.244,0.398c-2.315-0.911-4.952-0.225-6.533,1.695L1.306,13.525
		c-1.579,1.919-1.74,4.65-0.404,6.746l7.966,12.515c1.336,2.096,3.885,3.148,6.293,2.525L29.483,31.6
		c2.406-0.623,4.124-2.78,4.274-5.263l0.13-3.242c0,0,0.245-1.928-2.025-1.96c-1.672-0.022-1.459,1.422-2.921,2.318
		c-1.173,0.719-4.966,1.074-5.95-2.854c0,0-1.151-3.45,1.041-6.646c2.19-3.196,4.684-1.497,5.657-0.143
		c1.937,2.697,4.809,1.459,4.789-0.566L34.64,11.505z"/>
</g>
</svg>
